<?xml version="1.0" encoding="UTF-8" standalone="no"?>
<svg
   xmlns:dc="http://purl.org/dc/elements/1.1/"
   xmlns:cc="http://creativecommons.org/ns#"
   xmlns:rdf="http://www.w3.org/1999/02/22-rdf-syntax-ns#"
   xmlns:svg="http://www.w3.org/2000/svg"
   xmlns="http://www.w3.org/2000/svg"
   xmlns:sodipodi="http://sodipodi.sourceforge.net/DTD/sodipodi-0.dtd"
   xmlns:inkscape="http://www.inkscape.org/namespaces/inkscape"
   version="1.1"
   x="0px"
   y="0px"
   viewBox="0 0 64.217186 88.793861"
   enable-background="new 0 0 100 100"
   xml:space="preserve"
   id="svg86"
   sodipodi:docname="consumption.svg"
   inkscape:version="1.0.2 (e86c870879, 2021-01-15, custom)"
   width="64.217186"
   height="88.793861"><metadata
     id="metadata92"><rdf:RDF><cc:Work
         rdf:about=""><dc:format>image/svg+xml</dc:format><dc:type
           rdf:resource="http://purl.org/dc/dcmitype/StillImage" /></cc:Work></rdf:RDF></metadata><defs
     id="defs90" /><sodipodi:namedview
     pagecolor="#ffffff"
     bordercolor="#666666"
     borderopacity="1"
     objecttolerance="10"
     gridtolerance="10"
     guidetolerance="10"
     inkscape:pageopacity="0"
     inkscape:pageshadow="2"
     inkscape:window-width="1890"
     inkscape:window-height="1051"
     id="namedview88"
     showgrid="false"
     inkscape:zoom="6.808"
     inkscape:cx="49.869999"
     inkscape:cy="36.411015"
     inkscape:window-x="30"
     inkscape:window-y="0"
     inkscape:window-maximized="1"
     inkscape:current-layer="svg86"
     inkscape:document-rotation="0" /><g
     id="g105"
     transform="translate(-17.891814,-5.6031348)"><path
       d="m 25.861,57.04 c 0.24,0.103 0.489,0.15 0.738,0.15 0.577,0 1.137,-0.267 1.5,-0.751 l 20.5,-27.334 c 0.427,-0.568 0.494,-1.329 0.178,-1.963 C 48.458,26.508 47.81,26.106 47.1,26.106 H 39.064 L 42.116,7.788 C 42.259,6.935 41.799,6.096 41.005,5.756 40.208,5.412 39.286,5.664 38.767,6.357 l -20.5,27.334 c -0.427,0.568 -0.494,1.329 -0.178,1.963 0.319,0.634 0.967,1.036 1.677,1.036 h 8.037 L 24.75,55.007 c -0.143,0.854 0.316,1.692 1.111,2.033 z M 23.516,32.94 37.154,14.758 35,27.673 c -0.092,0.542 0.062,1.099 0.419,1.52 0.355,0.421 0.879,0.663 1.43,0.663 h 6.5 L 29.712,48.038 31.865,35.122 c 0.092,-0.542 -0.062,-1.099 -0.419,-1.52 -0.355,-0.421 -0.879,-0.663 -1.43,-0.663 h -6.5 z"
       id="path76" /><path
       d="m 67.659,51.708 c -0.732,-0.732 -1.919,-0.732 -2.651,0 l -7.942,7.947 C 56.048,59.1 54.9,58.758 53.663,58.758 c -3.964,0 -7.191,3.226 -7.191,7.189 0,3.963 3.226,7.189 7.191,7.189 3.962,0 7.189,-3.226 7.189,-7.189 0,-1.362 -0.403,-2.624 -1.064,-3.712 L 67.66,54.36 c 0.731,-0.733 0.731,-1.92 -10e-4,-2.652 z M 53.662,69.385 c -1.897,0 -3.441,-1.542 -3.441,-3.439 0,-1.897 1.544,-3.439 3.441,-3.439 1.897,0 3.439,1.542 3.439,3.439 0,1.897 -1.542,3.439 -3.439,3.439 z"
       id="path78" /><path
       d="m 53.662,37.495 c -1.036,0 -1.875,0.839 -1.875,1.875 v 5.317 c 0,1.036 0.839,1.875 1.875,1.875 1.036,0 1.875,-0.839 1.875,-1.875 V 41.34 c 12.123,0.917 21.81,10.607 22.727,22.731 H 74.92 c -1.036,0 -1.875,0.839 -1.875,1.875 0,1.036 0.839,1.875 1.875,1.875 h 3.344 C 77.347,79.945 67.66,89.635 55.537,90.552 v -3.347 c 0,-1.036 -0.839,-1.875 -1.875,-1.875 -1.036,0 -1.875,0.839 -1.875,1.875 v 3.347 C 39.664,89.635 29.974,79.945 29.056,67.821 h 3.346 c 1.036,0 1.875,-0.839 1.875,-1.875 0,-1.036 -0.839,-1.875 -1.875,-1.875 h -5.316 c -1.036,0 -1.875,0.839 -1.875,1.875 0,15.688 12.762,28.451 28.451,28.451 15.685,0 28.447,-12.762 28.447,-28.451 0,-15.689 -12.762,-28.451 -28.447,-28.451 z"
       id="path80" /></g></svg>
