<?xml version="1.0" encoding="UTF-8" standalone="no"?>
<svg
   xmlns:dc="http://purl.org/dc/elements/1.1/"
   xmlns:cc="http://creativecommons.org/ns#"
   xmlns:rdf="http://www.w3.org/1999/02/22-rdf-syntax-ns#"
   xmlns:svg="http://www.w3.org/2000/svg"
   xmlns="http://www.w3.org/2000/svg"
   xmlns:sodipodi="http://sodipodi.sourceforge.net/DTD/sodipodi-0.dtd"
   xmlns:inkscape="http://www.inkscape.org/namespaces/inkscape"
   data-name="Layer 2"
   viewBox="0 0 57.906296 52"
   x="0px"
   y="0px"
   version="1.1"
   id="svg286"
   sodipodi:docname="pollution.svg"
   inkscape:version="1.0.2 (e86c870879, 2021-01-15, custom)"
   width="57.906296"
   height="52">
  <metadata
     id="metadata292">
    <rdf:RDF>
      <cc:Work
         rdf:about="">
        <dc:format>image/svg+xml</dc:format>
        <dc:type
           rdf:resource="http://purl.org/dc/dcmitype/StillImage" />
      </cc:Work>
    </rdf:RDF>
  </metadata>
  <defs
     id="defs290" />
  <sodipodi:namedview
     pagecolor="#ffffff"
     bordercolor="#666666"
     borderopacity="1"
     objecttolerance="10"
     gridtolerance="10"
     guidetolerance="10"
     inkscape:pageopacity="0"
     inkscape:pageshadow="2"
     inkscape:window-width="1890"
     inkscape:window-height="1051"
     id="namedview288"
     showgrid="false"
     inkscape:zoom="11"
     inkscape:cx="29.101087"
     inkscape:cy="35.550759"
     inkscape:window-x="30"
     inkscape:window-y="0"
     inkscape:window-maximized="1"
     inkscape:current-layer="svg286"
     inkscape:document-rotation="0" />
  <title
     id="title266">12, cloud, smoke, polution, CO2, ecology, enviroment,</title>
  <path
     d="m 45.601087,17 h -3.5 A 17,17 0 0 0 8.1010871,17 c 0,0.3 0,0.5 0,0.8 A 12.5,12.5 0 0 0 12.601087,42 h 17.1 a 13,13 0 0 0 19.2,-0.5 12.5,12.5 0 0 0 -3.3,-24.5 z m 2.5,22.7 -0.5,0.3 a 11,11 0 0 1 -16.6,0.3 1,1 0 0 0 -0.7,-0.3 h -17.7 a 10.5,10.5 0 0 1 -3.0999999,-20.5 1,1 0 0 0 0.6999999,-1 c 0,-0.5 -0.1,-1 -0.1,-1.4 a 15,15 0 0 1 30,0 c 0,0.2 0,0.5 0,0.7 V 18 a 1,1 0 0 0 1,1.1 h 4.6 a 10.5,10.5 0 0 1 2.4,20.6 z"
     id="path268" />
  <path
     d="m 49.101087,15 a 4,4 0 1 0 -4,-4 4,4 0 0 0 4,4 z m 0,-6 a 2,2 0 1 1 -2,2 2,2 0 0 1 2,-2 z"
     id="path270" />
  <path
     d="M 4.1010871,8 A 4,4 0 1 0 0.10108706,4 4,4 0 0 0 4.1010871,8 Z m 0,-6 a 2,2 0 1 1 -2,2 2,2 0 0 1 2,-2 z"
     id="path272" />
  <path
     d="m 21.101087,52 a 4,4 0 1 0 -4,-4 4,4 0 0 0 4,4 z m 0,-6 a 2,2 0 1 1 -2,2 2,2 0 0 1 2,-2 z"
     id="path274" />
  <path
     d="m 31.101087,17 a 5,5 0 0 0 -5,5 v 5 a 5,5 0 0 0 10,0 v -5 a 5,5 0 0 0 -5,-5 z m 3,10 a 3,3 0 0 1 -6,0 v -5 a 3,3 0 0 1 6,0 z"
     id="path276" />
  <path
     d="m 20.101087,19 a 3,3 0 0 1 3,3 1,1 0 0 0 2,0 5,5 0 0 0 -10,0 v 5 a 5,5 0 0 0 10,0 1,1 0 0 0 -2,0 3,3 0 0 1 -6,0 v -5 a 3,3 0 0 1 3,-3 z"
     id="path278" />
  <path
     d="m 44.101087,32 h -3.6 l 0.5,-0.5 c 1,-1 2.1,-2 2.1,-3.5 a 3,3 0 0 0 -3,-3 3.2,3.2 0 0 0 -3,3 1,1 0 0 0 2,0 1.2,1.2 0 0 1 1,-1 1,1 0 0 1 1,1 c 0,0.6 -0.7,1.3 -1.5,2.1 l -2.2,2.2 a 1,1 0 0 0 0.7,1.7 h 6 a 1,1 0 0 0 0,-2 z"
     id="path280" />
</svg>
