<?xml version="1.0" encoding="UTF-8" standalone="no"?>
<svg
   viewBox="0 0 24 24"
   width="24"
   height="24"
   version="1.1"
   id="svg2"
   sodipodi:docname="battery-soh.svg"
   inkscape:version="1.3 (0e150ed6c4, 2023-07-21)"
   xmlns:inkscape="http://www.inkscape.org/namespaces/inkscape"
   xmlns:sodipodi="http://sodipodi.sourceforge.net/DTD/sodipodi-0.dtd"
   xmlns="http://www.w3.org/2000/svg"
   xmlns:svg="http://www.w3.org/2000/svg">
  <defs
     id="defs2" />
  <sodipodi:namedview
     id="namedview2"
     pagecolor="#ffffff"
     bordercolor="#666666"
     borderopacity="1.0"
     inkscape:showpageshadow="2"
     inkscape:pageopacity="0.0"
     inkscape:pagecheckerboard="0"
     inkscape:deskcolor="#d1d1d1"
     inkscape:zoom="50.333333"
     inkscape:cx="12"
     inkscape:cy="12"
     inkscape:window-width="2530"
     inkscape:window-height="1412"
     inkscape:window-x="30"
     inkscape:window-y="0"
     inkscape:window-maximized="1"
     inkscape:current-layer="svg2" />
  <path
     fill="none"
     d="M0 0h24v24H0z"
     id="path1" />
  <path
     d="M 11,6.0397351 H 7 V 20.039735 H 17 V 6.0397351 h -4 v -2 h -2 z m -2,-2 v -1 c 0,-0.5522847 0.4477153,-1 1,-1 h 4 c 0.552285,0 1,0.4477153 1,1 v 1 h 3 c 0.552285,0 1,0.4477153 1,1 V 21.039735 c 0,0.552285 -0.447715,1 -1,1 H 6 c -0.5522847,0 -1,-0.447715 -1,-1 V 5.0397351 c 0,-0.5522847 0.4477153,-1 1,-1 z"
     id="path2"
     sodipodi:nodetypes="ccccccccccsssscssssssssc" />
  <rect
     style="fill:#000000;stroke-width:0.83317"
     id="rect4"
     width="1.9867547"
     height="8.543046"
     x="11.026489"
     y="8.9602642"
     ry="0.72471911" />
  <rect
     style="fill:#000000;stroke-width:0.795508"
     id="rect4-3"
     width="1.9470197"
     height="7.947021"
     x="12.311257"
     y="-15.999998"
     ry="0.67415732"
     transform="rotate(90)" />
</svg>
