<?xml version="1.0" encoding="UTF-8" standalone="no"?>
<svg
   xmlns:dc="http://purl.org/dc/elements/1.1/"
   xmlns:cc="http://creativecommons.org/ns#"
   xmlns:rdf="http://www.w3.org/1999/02/22-rdf-syntax-ns#"
   xmlns:svg="http://www.w3.org/2000/svg"
   xmlns="http://www.w3.org/2000/svg"
   xmlns:sodipodi="http://sodipodi.sourceforge.net/DTD/sodipodi-0.dtd"
   xmlns:inkscape="http://www.inkscape.org/namespaces/inkscape"
   version="1.1"
   x="0px"
   y="0px"
   viewBox="0 0 83.599998 100"
   xml:space="preserve"
   id="svg22"
   sodipodi:docname="battery-charge-line.svg"
   width="83.599998"
   height="100"
   inkscape:version="1.0.2 (e86c870879, 2021-01-15, custom)"><metadata
     id="metadata28"><rdf:RDF><cc:Work
         rdf:about=""><dc:format>image/svg+xml</dc:format><dc:type
           rdf:resource="http://purl.org/dc/dcmitype/StillImage" /><dc:title></dc:title></cc:Work></rdf:RDF></metadata><defs
     id="defs26" /><sodipodi:namedview
     pagecolor="#ffffff"
     bordercolor="#666666"
     borderopacity="1"
     objecttolerance="10"
     gridtolerance="10"
     guidetolerance="10"
     inkscape:pageopacity="0"
     inkscape:pageshadow="2"
     inkscape:window-width="1890"
     inkscape:window-height="1051"
     id="namedview24"
     showgrid="false"
     inkscape:zoom="7.04"
     inkscape:cx="41.8"
     inkscape:cy="62.5"
     inkscape:window-x="30"
     inkscape:window-y="0"
     inkscape:window-maximized="1"
     inkscape:current-layer="svg22" /><g
     id="g16"
     transform="translate(-8.2)"><g
       id="g10"><g
         id="g4"><path
           d="m 50,84.1 c -15.3,0 -27.8,-12.5 -27.8,-27.8 0,-7.5 2.9,-14.5 8.3,-19.8 0.4,-0.4 1.1,-0.4 1.6,0 0.4,0.4 0.4,1.1 0,1.6 -4.9,4.8 -7.6,11.3 -7.6,18.2 0,14.1 11.5,25.6 25.6,25.6 14.1,0 25.6,-11.5 25.6,-25.6 0,-5.3 -1.6,-10.3 -4.6,-14.6 -0.3,-0.5 -0.2,-1.2 0.3,-1.5 0.5,-0.3 1.2,-0.2 1.5,0.3 3.3,4.7 5,10.2 5,15.9 C 77.8,71.7 65.3,84.1 50,84.1 Z"
           id="path2" /></g><g
         id="g8"><path
           d="M 58,100 H 42 L 41.1,96.9 C 39.8,92.5 36.8,88.8 32.7,86.4 l -0.1,-0.1 c -4.1,-2.4 -8.8,-3.1 -13.3,-2 l -3.1,0.8 -8,-13.8 2.2,-2.3 c 3.2,-3.3 4.9,-7.7 4.9,-12.5 v -0.2 c 0,-4.8 -1.7,-9.2 -4.9,-12.5 l -2.2,-2.3 8,-13.8 3.2,0.8 c 3.8,0.9 7.8,0.6 11.5,-1.1 0.6,-0.2 1.2,0 1.5,0.6 0.2,0.6 0,1.2 -0.6,1.5 -4.1,1.8 -8.7,2.3 -12.9,1.2 l -1.5,-0.4 -6.4,10.8 1.1,1.1 c 3.6,3.7 5.5,8.7 5.5,14.1 v 0.2 c 0,5.3 -1.9,10.3 -5.5,14 l -1.1,1.1 6.3,10.9 1.5,-0.4 c 5,-1.2 10.3,-0.4 14.9,2.2 l 0.1,0.1 c 4.6,2.7 8,6.9 9.4,11.8 l 0.4,1.5 h 12.6 l 0.4,-1.5 C 58,91.3 61.4,87.1 66,84.4 l 0.6,0.9 -0.6,-0.9 h 0.1 C 70.7,81.7 76,80.9 81,82.2 l 1.5,0.4 6.5,-11 -1.1,-1.1 C 84.3,66.8 82.4,61.8 82.4,56.4 v -0.2 c 0,-5.3 1.9,-10.3 5.5,-14 L 89,41.1 82.7,30.2 81.2,30.6 c -1.5,0.4 -3,0.6 -4.5,0.6 0,0 0,0 0,0 -0.6,0 -1.1,-0.5 -1.1,-1.1 0,-0.6 0.5,-1.1 1.1,-1.1 1.4,0 2.7,-0.2 4,-0.5 l 3.1,-0.8 8,13.8 -2.2,2.3 c -3.2,3.3 -4.9,7.7 -4.9,12.5 v 0.2 c 0,4.8 1.7,9.2 4.9,12.5 l 2.2,2.3 -8,13.8 -3.2,-0.8 c -4.4,-1.1 -9.2,-0.4 -13.3,2 l -0.1,0.1 c -4.1,2.4 -7.1,6.1 -8.4,10.5 z"
           id="path6" /></g></g><g
       id="g14"><path
         d="M 41.7,77.1 50,45.3 c 0.2,-0.9 0,-1.8 -0.5,-2.5 -0.6,-0.7 -1.4,-1.2 -2.3,-1.2 H 34.7 L 36.9,0 h 27.3 l -5.5,22.2 c -0.2,0.9 0,1.8 0.5,2.5 0.6,0.7 1.4,1.1 2.3,1.1 h 6.3 c 2.1,0 4.1,1.2 5,3.1 1,1.9 0.8,4.2 -0.5,5.9 z M 37,39.4 h 10.1 c 1.6,0 3.1,0.8 4.1,2 1,1.3 1.3,2.9 0.9,4.4 L 46.7,66.3 70.6,33.5 c 0.8,-1.1 0.9,-2.4 0.3,-3.6 C 70.3,28.7 69.1,28 67.8,28 h -6.3 c -1.6,0 -3.1,-0.7 -4.1,-2 -1,-1.3 -1.3,-2.9 -0.9,-4.4 L 61.3,2.2 H 39 Z"
         id="path12" /></g></g></svg>
